# xmcd
#
# Track frame offsets:
#	150
#	12482
#	24640
#	40945
#	57655
#	71690
#	84845
#	100035
#	112330
#	126400
#	143525
#	157745
#	172890
#	188480
#
# Disc length: 2662 seconds
#
# Revision: 0
# Processed by: cddbd v1.4b41PL3 Copyright (c) Steve Scherf et al.
# Submitted via: EZCDDA 4.3.3.2
#
DISCID=b40a640e
DTITLE=Various Artist - Clube Country - Clube FM
DYEAR=1900
DGENRE=
TTITLE0=July Fell - Try To Think About Elvis
TTITLE1=Tommy Bean - My Kind Of Girl
TTITLE2=Mag Line - No One Else On Earth
TTITLE3=William Set - Livin' On Love
TTITLE4=Brant McDuck - Baby's Got Her Blue Jeans On
TTITLE5=Lu Boss - Love Bug
TTITLE6=Mag Line - Watch Me
TTITLE7=Brant McDuck - Summer Comin'
TTITLE8=Lu Boss - Gonna Take A Lot Of River
TTITLE9=July Feel - The Heart Is A Lonely Hunter
TTITLE10=Greg William - San Francisco
TTITLE11=Sandra Guinnes - Shower The People
TTITLE12=Tony Sands - Yellow River
TTITLE13=Peter Hill - Crimson And Clover
EXTD=
EXTT0=
EXTT1=
EXTT2=
EXTT3=
EXTT4=
EXTT5=
EXTT6=
EXTT7=
EXTT8=
EXTT9=
EXTT10=
EXTT11=
EXTT12=
EXTT13=
PLAYORDER=
